<?xml version="1.0" encoding="UTF-8"?>
<svg id="Layer_1" xmlns="http://www.w3.org/2000/svg" version="1.1" viewBox="0 0 1024 1024">
  <!-- Generator: Adobe Illustrator 29.3.1, SVG Export Plug-In . SVG Version: 2.1.0 Build 151)  -->
  <defs>
    <style>
      .st0 {
        fill: #fff;
      }
    </style>
  </defs>
  <path d="M79.639,745.681l-.007-4.779,50.611-6.419,3.968-2.423-21.168-37.407c-24.672.368-81.237-12.488-72.866-47.037,3.898-16.086,2.746-13.455,2.457-29.517-.349-19.399-2.303-43.717,4.407-61.571,3.067-8.16,10.287-17.112,12.23-24.708,4.366-17.071,1.676-26.48,13.982-42.228,3.441-4.403,14.248-12.439,15.64-16.479,3.471-10.073,3.476-30.6,5.666-42.514C141.956,172.746,399.191,12.223,653.321,79.683c349.689,92.827,448.031,537.047,171.521,772.85-209.752,178.873-528.84,126.333-677.742-101.213l-67.461-5.639ZM930.793,424.512c-20.209-94.944-74.198-179.798-152.726-236.708-132.68-96.156-304.807-104.304-447.367-23.736-106.237,60.04-175.314,165.105-194.875,285.315l129.036-31.576,2.47-2.243c-8.022-20.3,23.717-31.476,38.06-23.177,41.924-19.087,82.169-58.676,126.336-72.689,46.646-14.8,110.264-14.012,159.483-15.569,65.687-2.077,164.507-9.474,222.234,24.955,9.661,5.762,19.82,14.023,28.869,20.916,30.648,23.345,58.884,49.922,88.479,74.512ZM461.06,655.774c-5.764-1.468-24.559,0-32.12,0-9.844,0-25.171-9.47-33.431-14.749-5.477-3.5-36.157-23.636-31.555-30.143,13.525-4.889,27.248-8.168,41.402-10.812,15.437-2.884,38.919-7.016,54.17-6.986,22.555.044,32.086,13.523,43.153,30.706,4.465,6.932,17.769,28.193,14.582,35.165-5.925,12.959-57.23,9.159-70.722,9.6-102.756,3.362-205.636,1.413-308.348-1.474-4.252-.12-8.123-1.68-12.705-1.749-20.043-.3-38.854,1.038-58.687,3.305-.404,2.391,3.006,1.988,4.788,2.398,14.428,3.313,35.425,4.717,50.544,5.682,74.739,4.771,151.561,3.827,226.576,4.686,51.56.59,104.02,4.275,155.515-1.739,20.166-2.355,33.494-1.434,40.029-22.605,12.574-40.737,11.222-160.314,80.623-152.247,31.977,3.717,35.103,52.503,43.708,75.13.775,2.038.943,4.719,3.648,5.168-.176-21.098,2.351-45.678,8.841-65.853,8.583-26.683,26.056-24.999,50.297-30.002,33.512-6.917,70.25-13.101,104.153-17.901,23.32-3.302,48.537-9.497,71.107-.172,3.293,4.853-10.921,12.958-13.621,15.903-9.651,10.526-16.347,24.912-20.013,38.589,3.02.647,3.891-1.475,5.495-3.322,4.503-5.185,7.713-12.313,12.92-17.593,42.515-43.118,60.653,28.76,58.688,61.08l2.419-1.579c3.642-33.617,8.518-64.611-9.171-95.27-12.923-22.398-57.387-60.321-78.359-79.027-67.621-60.318-81.502-67.533-174.338-71.378-83.68-3.465-175.041-3.021-256.957,14.321l-26.425,12.897c19.604-1.135,39.064-4.825,58.624-6.394,57.838-4.639,130.36-8.304,187.964-4.908,4.833.285,22.169,1.634,24.133,4.885-4.972,18.836-12.675,41.065-21.522,58.908-9.18,18.515-14.374,26.15-36.357,27.883-52.403,4.131-110.845.182-163.934,1.482-107.83,2.641-256.847-1.686-350.712,55.601-4.364,2.663-29.459,19.549-25.822,24.744,6.031-.212,22.244,6.927,22.17,13.352-.048,4.195-12.747,28.502-16.574,30.016l-11.523-9.408c-3.34-.519-15.422,22.853-16.198,26.646-2.058,10.053.75,23.664-.353,34.16,11.568-4.022,36.658,8.01,35.306,21.53-1.352,13.519-24.028,27.666-35.31,33.101,36.308,28.164,36.285-33.696,57.76-41.023,11.533-3.935,34.605-2.585,47.493-2.425,48.377.603,99.519-.657,147.659,3.303,38.89,3.2,60.664,39.686,91.952,44.556,7.167,1.116,59.013.444,61.441-2.846.056-1.009-1.864-3.055-2.405-3.193ZM902.366,669.743c15.458,12.253,24.616-15.002,27.634-25.217,8.18-27.684,7.773-63.053-.895-90.634-5.582-17.764-18.748-35.003-31.559-10.878-10.439,19.657-13.42,54.636-11.678,76.599.85,10.711,8.409,43.717,16.499,50.13ZM607.567,554.972c-14.11,2.929-23.871,27.621-27.315,40.124-8.06,29.268-6.743,71.32,8.794,98.108,13.062,22.521,32.306,16.419,44.339-3.22,18.762-30.62,20.592-93.023.053-123.078-6.533-9.559-13.82-14.436-25.871-11.934ZM848.69,591.335c4.465-7.927-12.829-6.464-16.626-6.196-29.621,2.093-111.859,23.588-140.228,34.895-2.444.974-4.342-.932-3.521,3.613,20.523-2.642,153.551-20.196,160.375-32.311ZM439.375,607.575c-8.297-7.857-23.555.115-34.116-1.177l-15.658,5.998c16.735.802,33.28-2.498,49.774-4.821ZM834.442,689.491l-16.97-28.693-149.246,14.244c-5.045.877-5.721,7.855-7.246,12.026l173.462,2.424ZM410.471,705.575l-167.557-3.296-10.699,20.937c40.432-3.136,80.853-7.737,121.256-11.221,16.893-1.457,34.624-1.36,51.443-3.16,2.402-.257,4.956-.364,5.556-3.261ZM847.29,764.989l-637.582-5.613c81.839,107.6,225.828,167.18,360.546,154.949,100.418-9.117,204.324-59.763,268.972-137.342,1.216-1.459,9.255-10.971,8.065-11.994Z"/>
  <path class="st0" d="M930.793,424.512c-29.596-24.589-57.831-51.166-88.479-74.512-9.05-6.893-19.208-15.154-28.869-20.916-57.727-34.428-156.547-27.032-222.234-24.955-49.219,1.556-112.837.768-159.483,15.569-44.166,14.014-84.412,53.602-126.336,72.689-14.343-8.3-46.082,2.877-38.06,23.177l-2.47,2.243-129.036,31.576c19.561-120.21,88.638-225.275,194.875-285.315,142.56-80.568,314.687-72.42,447.367,23.736,78.527,56.91,132.517,141.764,152.726,236.708Z"/>
  <path class="st0" d="M461.06,655.774c.541.138,2.461,2.184,2.405,3.193-2.428,3.289-54.274,3.961-61.441,2.846-31.288-4.871-53.062-41.357-91.952-44.556-48.14-3.961-99.282-2.7-147.659-3.303-12.888-.161-35.96-1.511-47.493,2.425-21.475,7.328-21.453,69.187-57.76,41.023,11.282-5.435,33.958-19.582,35.31-33.101,1.352-13.52-23.737-25.552-35.306-21.53,1.102-10.496-1.705-24.106.353-34.16.776-3.793,12.859-27.165,16.198-26.646l11.523,9.408c3.827-1.514,16.525-25.821,16.574-30.016.074-6.425-16.139-13.564-22.17-13.352-3.637-5.195,21.458-22.081,25.822-24.744,93.865-57.288,242.882-52.961,350.712-55.601,53.089-1.3,111.531,2.649,163.934-1.482,21.983-1.733,27.177-9.368,36.357-27.883,8.847-17.843,16.55-40.071,21.522-58.908-1.964-3.252-19.3-4.6-24.133-4.885-57.604-3.396-130.126.27-187.964,4.908-19.56,1.569-39.019,5.259-58.624,6.394l26.425-12.897c81.916-17.342,173.277-17.787,256.957-14.321,92.836,3.844,106.716,11.059,174.338,71.378,20.972,18.707,65.436,56.63,78.359,79.027,17.689,30.66,12.813,61.653,9.171,95.27l-2.419,1.579c1.966-32.32-16.172-104.198-58.688-61.08-5.207,5.28-8.417,12.409-12.92,17.593-1.604,1.847-2.475,3.969-5.495,3.322,3.666-13.678,10.362-28.064,20.013-38.589,2.7-2.944,16.914-11.05,13.621-15.903-22.569-9.325-47.787-3.13-71.107.172-33.903,4.801-70.641,10.984-104.153,17.901-24.241,5.003-41.714,3.319-50.297,30.002-6.489,20.175-9.017,44.755-8.841,65.853-2.706-.449-2.873-3.13-3.648-5.168-8.605-22.627-11.731-71.413-43.708-75.13-69.401-8.067-68.049,111.51-80.623,152.247-6.535,21.171-19.863,20.25-40.029,22.605-51.495,6.014-103.955,2.329-155.515,1.739-75.015-.859-151.836.086-226.576-4.686-15.12-.965-36.117-2.369-50.544-5.682-1.782-.409-5.192-.007-4.788-2.398,19.833-2.267,38.644-3.605,58.687-3.305,4.582.069,8.453,1.629,12.705,1.749,102.713,2.887,205.593,4.836,308.348,1.474,13.492-.441,64.796,3.359,70.722-9.6,3.188-6.972-10.117-28.233-14.582-35.165-11.068-17.183-20.598-30.662-43.153-30.706-15.251-.03-38.733,4.102-54.17,6.986-14.154,2.645-27.877,5.923-41.402,10.812-4.602,6.506,26.078,26.643,31.555,30.143,8.26,5.278,23.587,14.749,33.431,14.749,7.561,0,26.355-1.468,32.12,0ZM718.436,338.208c-11.317,1.637-19.622,6.992-24.504,17.251-9.064,19.045-21.122,60.378-26.03,81.564-3.654,15.774-1.241,13.827,14.771,13.166,49.696-2.051,107.639-6.433,157.383-11.24,14.838-1.434,36.406-3.252,30.933-24.488-4.836-18.768-62.415-65.862-81.54-72.624-15.159-5.36-54.742-5.985-71.013-3.63ZM535.466,484.313c-11.318.358-25.899,4.528-37.673,5.84-18.383,2.047-120.937,10.552-129.123,18.621-6.614,6.519,5.689,28.144,11.22,33.847,4.445,4.582,14.26,10.544,20.525,11.595,16.164,2.711,88.573-3.442,105.438-7.823,14.012-3.64,30.357-21.647,36.081-34.582,4.546-10.272,11.331-28.06-6.467-27.497ZM177.274,511.708c-16.713.572-38.617.44-54.693,3.122-17.941,2.994-24.424,24.965-25.252,40.585-.642,12.127-1.371,15.974,9.379,22.7,33.791,21.145,163.184,16.479,204.49,9.702,12.347-2.026,49.682-8.878,53.269-22.275,1.167-4.359-3.769-13.424-6.289-17.272-3.888-5.934-19.631-24.996-24.728-29.876-6.745-6.458-17.112-6.657-26.498-7.227-40.187-2.439-89.074-.851-129.679.539Z"/>
  <path class="st0" d="M847.29,764.989c1.19,1.022-6.848,10.534-8.065,11.994-64.648,77.578-168.554,128.224-268.972,137.342-134.719,12.232-278.707-47.348-360.546-154.949l637.582,5.613Z"/>
  <path class="st0" d="M834.442,689.491l-173.462-2.424c1.526-4.171,2.201-11.149,7.246-12.026l149.246-14.244,16.97,28.693Z"/>
  <path class="st0" d="M607.567,554.972c12.052-2.502,19.339,2.375,25.871,11.934,20.539,30.055,18.709,92.458-.053,123.078-12.034,19.639-31.278,25.74-44.339,3.22-15.537-26.788-16.854-68.84-8.794-98.108,3.443-12.503,13.205-37.195,27.315-40.124ZM621.957,567.957c-10.204-8.528-19.433-.927-25.853,7.659-19.524,26.111-21.782,90.906,2.202,114.751,8.331,8.283,13.482,8.977,22.584,1.577,27.204-22.119,27.436-101.949,1.068-123.987Z"/>
  <path class="st0" d="M410.471,705.575c-.6,2.897-3.154,3.004-5.556,3.261-16.819,1.799-34.551,1.703-51.443,3.16-40.403,3.484-80.824,8.084-121.256,11.221l10.699-20.937,167.557,3.296Z"/>
  <path class="st0" d="M902.366,669.743c-8.09-6.413-15.649-39.419-16.499-50.13-1.742-21.964,1.24-56.942,11.678-76.599,12.811-24.125,25.977-6.886,31.559,10.878,8.668,27.581,9.075,62.949.895,90.634-3.018,10.215-12.176,37.471-27.634,25.217ZM915.891,543.851c-10.402-8.789-18.652,15.158-20.615,22.589-5.944,22.501-6.517,47.52-.587,70.049,5.141,19.534,15.764,40.269,28.124,10.485,9.293-22.395,8.835-53.92,3.386-77.327-1.321-5.674-6.361-22.461-10.307-25.796Z"/>
  <path class="st0" d="M848.69,591.335c-6.824,12.116-139.852,29.669-160.375,32.311-.821-4.544,1.077-2.638,3.521-3.613,28.369-11.307,110.607-32.802,140.228-34.895,3.797-.268,21.091-1.731,16.626,6.196Z"/>
  <path class="st0" d="M439.375,607.575c-16.494,2.323-33.039,5.622-49.774,4.821l15.658-5.998c10.561,1.292,25.819-6.68,34.116,1.177Z"/>
  <path d="M177.274,511.708c40.605-1.39,89.492-2.979,129.679-.539,9.386.57,19.753.77,26.498,7.227,5.097,4.88,20.84,23.941,24.728,29.876,2.521,3.848,7.456,12.913,6.289,17.272-3.587,13.396-40.922,20.249-53.269,22.275-41.307,6.778-170.699,11.443-204.49-9.702-10.75-6.727-10.022-10.574-9.379-22.7.828-15.62,7.31-37.591,25.252-40.585,16.075-2.683,37.979-2.55,54.693-3.122Z"/>
  <path d="M718.436,338.208c16.271-2.354,55.854-1.729,71.013,3.63,19.124,6.762,76.703,53.856,81.54,72.624,5.472,21.236-16.095,23.054-30.933,24.488-49.744,4.807-107.687,9.189-157.383,11.24-16.012.661-18.425,2.608-14.771-13.166,4.908-21.186,16.966-62.519,26.03-81.564,4.883-10.26,13.187-15.614,24.504-17.251ZM691.745,430.714c2.349,3.762,53.441,1.534,61.427.046,15.226-2.837,21.194-7.873,9.828-20.717-13.799-15.593-31.549-14.784-49.832-8.046-13.554,4.995-22.685,13.133-21.423,28.717Z"/>
  <path d="M535.466,484.313c17.798-.563,11.013,17.225,6.467,27.497-5.724,12.935-22.069,30.942-36.081,34.582-16.865,4.381-89.274,10.534-105.438,7.823-6.265-1.051-16.08-7.012-20.525-11.595-5.532-5.703-17.834-27.328-11.22-33.847,8.186-8.068,110.74-16.573,129.123-18.621,11.774-1.311,26.355-5.482,37.673-5.84ZM400.888,524.146c1.578,13.76,16.305,22.185,29.609,22.511,13.544.331,42.866-2.049,55.813-5.353,8.447-2.156,33.122-22.061,31.77-29.227-.446-2.363-5.116-2.602-7.227-2.585-16.226.135-41.274,2.896-57.805,4.973-17.476,2.196-34.731,7.172-52.159,9.681Z"/>
  <path d="M621.957,567.957c26.368,22.038,26.137,101.868-1.068,123.987-9.101,7.4-14.253,6.706-22.584-1.577-23.984-23.846-21.726-88.641-2.202-114.751,6.42-8.587,15.65-16.187,25.853-7.659Z"/>
  <path d="M915.891,543.851c3.947,3.335,8.986,20.122,10.307,25.796,5.449,23.407,5.907,54.932-3.386,77.327-12.36,29.784-22.983,9.049-28.124-10.485-5.929-22.529-5.357-47.548.587-70.049,1.963-7.431,10.214-31.378,20.615-22.589Z"/>
  <path class="st0" d="M691.745,430.714c-1.262-15.584,7.869-23.721,21.423-28.717,18.284-6.738,36.034-7.547,49.832,8.046,11.366,12.844,5.398,17.879-9.828,20.717-7.986,1.488-59.078,3.716-61.427-.046Z"/>
  <g>
    <path d="M400.888,524.146c17.428-2.509,34.684-7.485,52.159-9.681,16.531-2.077,41.58-4.838,57.805-4.973,2.111-.018,6.781.222,7.227,2.585,1.352,7.167-23.322,27.072-31.77,29.227-12.947,3.304-42.269,5.684-55.813,5.353-13.304-.325-28.031-8.75-29.609-22.511Z"/>
    <path d="M433.295,547.188c-.992,0-1.93-.011-2.811-.032-13.537-.331-28.495-9.007-30.093-22.954l-.056-.482.481-.069c8.169-1.176,16.446-2.926,24.451-4.618,9.06-1.916,18.429-3.896,27.717-5.063,14.312-1.798,40.859-4.836,57.864-4.977,2.676-.013,7.222.337,7.723,2.992,1.479,7.833-23.938,27.713-32.138,29.805-11.948,3.049-38.315,5.4-53.138,5.4ZM401.446,524.569c1.824,13.124,16.112,21.271,29.063,21.587,13.984.338,43-2.103,55.677-5.337,8.293-2.116,32.661-21.979,31.402-28.65-.311-1.644-3.664-2.214-6.731-2.177-16.955.141-43.458,3.173-57.748,4.969-9.247,1.162-18.595,3.138-27.635,5.05-7.862,1.662-15.986,3.38-24.029,4.559Z"/>
  </g>
</svg>